<svg xmlns="http://www.w3.org/2000/svg" version="1.0" width="512.000000pt" height="512.000000pt" viewBox="0 0 512.000000 512.000000" preserveAspectRatio="xMidYMid meet">

<g transform="translate(0.000000,512.000000) scale(0.100000,-0.100000)" fill="white" stroke="none">
<path d="M145 4595 c-51 -18 -120 -91 -134 -141 -16 -56 -15 -3733 0 -3789 15 -53 91 -129 144 -144 28 -8 447 -11 1441 -11 1355 0 1403 1 1425 19 32 26 32 86 0 112 -22 18 -70 19 -1423 19 l-1399 0 -24 25 -25 24 0 1501 0 1500 1854 0 1853 0 27 21 c34 27 36 77 3 107 l-23 22 -1857 0 -1857 0 0 275 0 276 25 24 24 25 2361 0 2361 0 24 -25 25 -24 0 -276 0 -275 -428 0 c-464 0 -462 0 -476 -55 -7 -29 15 -79 39 -89 9 -3 208 -6 441 -6 l424 0 0 -1500 0 -1501 -25 -24 -24 -25 -834 0 c-829 0 -834 0 -861 -21 -36 -28 -36 -80 0 -108 27 -21 32 -21 863 -21 567 0 849 4 875 11 51 14 128 91 144 145 17 57 18 3729 1 3789 -15 53 -91 129 -144 144 -29 8 -707 11 -2410 11 -2018 -1 -2376 -3 -2410 -15z"/>
<path d="M463 4271 c-40 -25 -54 -51 -55 -101 -1 -108 127 -167 203 -94 55 52 56 135 4 184 -35 32 -109 38 -152 11z"/>
<path d="M822 4256 c-33 -31 -37 -39 -37 -84 0 -63 26 -101 82 -121 137 -49 228 155 101 225 -13 8 -42 13 -66 14 -35 0 -49 -6 -80 -34z"/>
<path d="M1218 4274 c-36 -19 -58 -63 -58 -115 0 -33 6 -47 33 -74 44 -44 94 -54 144 -28 79 41 93 135 28 200 -27 27 -40 33 -76 33 -24 -1 -56 -7 -71 -16z"/>
<path d="M1056 3065 c-49 -17 -103 -68 -127 -120 -17 -38 -19 -78 -19 -695 l0 -655 28 -50 c18 -34 42 -59 76 -80 l49 -30 258 -3 c249 -3 259 -2 279 18 30 30 27 83 -6 109 -25 20 -39 21 -259 21 -229 0 -232 0 -253 23 l-22 23 0 631 0 632 26 20 27 21 1447 0 1447 0 27 -21 26 -20 0 -633 0 -633 -23 -21 -23 -22 -1091 0 c-1088 0 -1090 0 -1117 -21 -33 -26 -36 -79 -6 -109 20 -20 33 -20 1129 -20 l1109 0 53 28 c42 21 61 40 86 82 l33 54 0 656 c0 612 -2 658 -19 695 -23 51 -89 111 -138 124 -26 8 -498 11 -1498 11 -1216 -1 -1466 -3 -1499 -15z"/>
<path d="M1725 2709 c-12 -6 -26 -18 -31 -27 -6 -9 -80 -199 -164 -421 -146 -384 -153 -405 -139 -430 19 -33 60 -48 97 -35 22 8 33 25 62 97 l34 87 185 -2 185 -3 29 -75 c15 -41 35 -83 44 -92 37 -41 123 -5 123 51 0 12 -67 201 -150 419 -157 419 -170 443 -228 441 -15 0 -36 -5 -47 -10z m110 -417 c31 -84 55 -155 52 -158 -2 -3 -58 -3 -124 -2 l-120 3 61 162 c34 89 64 159 67 155 4 -4 32 -76 64 -160z"/>
<path d="M3302 2701 c-112 -39 -177 -126 -176 -236 0 -69 26 -128 73 -168 16 -13 95 -51 175 -83 194 -77 241 -124 199 -196 -34 -59 -65 -73 -156 -73 -90 1 -135 17 -201 75 -83 73 -182 -9 -114 -95 34 -43 131 -101 202 -120 91 -25 203 -17 271 17 115 59 180 177 156 284 -23 99 -90 163 -229 219 -196 78 -210 85 -222 116 -10 23 -10 35 0 59 20 48 55 65 135 65 63 0 78 -4 142 -40 62 -33 77 -38 100 -29 38 13 60 55 47 91 -21 61 -180 133 -293 133 -31 -1 -80 -9 -109 -19z"/>
<path d="M2336 2679 l-26 -20 0 -415 c0 -406 0 -414 21 -435 20 -20 29 -20 188 -17 165 3 167 3 233 36 76 37 134 97 173 176 89 182 61 441 -62 577 -81 90 -171 119 -369 119 -118 0 -134 -2 -158 -21z m315 -139 c92 -26 149 -102 170 -228 23 -138 -25 -281 -113 -339 -37 -25 -52 -28 -145 -31 l-103 -4 0 306 0 306 78 0 c42 0 93 -5 113 -10z"/>
</g>
</svg>