<svg xmlns="http://www.w3.org/2000/svg" xmlns:xlink="http://www.w3.org/1999/xlink" id="svg" version="1.1" width="400" height="400" viewBox="0, 0, 400,400"><g id="svgg"><path id="path0" d="M109.134 42.452 C 108.548 42.668,107.961 43.124,107.830 43.467 C 107.519 44.278,107.519 336.452,107.830 336.763 C 108.312 337.245,192.131 337.243,193.294 336.761 L 194.398 336.304 194.499 190.852 L 194.600 45.400 193.600 43.726 L 192.600 42.052 151.400 42.057 C 125.536 42.059,109.803 42.207,109.134 42.452 M142.466 80.452 C 144.309 81.172,144.460 82.232,144.325 93.443 C 144.155 107.507,145.038 106.600,131.529 106.600 C 118.436 106.600,118.802 107.005,118.801 92.506 L 118.800 82.813 119.966 81.506 L 121.133 80.200 129.466 79.966 C 138.443 79.715,140.806 79.803,142.466 80.452 M180.688 80.191 C 182.217 80.567,182.353 81.533,182.439 92.634 C 182.555 107.736,183.591 106.600,169.711 106.600 C 157.366 106.600,158.634 108.103,158.483 93.289 C 158.347 79.883,158.233 80.330,161.862 80.008 C 164.760 79.750,179.476 79.894,180.688 80.191 M294.099 97.616 C 293.384 98.261,292.242 99.695,291.561 100.801 C 290.880 101.908,289.965 103.004,289.528 103.239 C 289.090 103.473,288.481 104.265,288.175 104.999 C 287.868 105.733,287.073 106.721,286.409 107.194 C 285.744 107.667,285.200 108.296,285.200 108.592 C 285.200 108.887,284.682 109.565,284.048 110.098 C 283.414 110.631,282.785 111.412,282.649 111.834 C 282.513 112.255,281.816 113.239,281.101 114.020 C 280.385 114.800,279.297 116.204,278.681 117.139 C 278.066 118.074,277.293 118.943,276.964 119.069 C 276.635 119.195,276.005 120.005,275.565 120.869 C 275.124 121.732,274.494 122.542,274.165 122.669 C 273.835 122.795,273.199 123.617,272.752 124.495 C 272.304 125.373,271.597 126.180,271.182 126.289 C 270.766 126.397,270.306 126.872,270.159 127.343 C 270.012 127.814,269.226 129.010,268.412 130.000 C 267.598 130.990,266.594 132.385,266.180 133.101 C 265.766 133.816,265.115 134.500,264.733 134.621 C 264.352 134.742,263.737 135.527,263.367 136.366 C 262.997 137.204,262.178 138.195,261.547 138.567 C 260.916 138.940,260.400 139.513,260.400 139.841 C 260.400 140.168,259.942 140.894,259.382 141.454 C 258.823 142.014,257.940 143.144,257.422 143.966 C 256.903 144.787,255.831 146.147,255.039 146.986 C 254.248 147.825,253.600 148.752,253.600 149.046 C 253.600 149.339,253.093 149.842,252.473 150.162 C 251.843 150.488,251.025 151.458,250.616 152.363 C 250.215 153.254,249.563 154.085,249.168 154.210 C 248.773 154.336,248.242 155.066,247.989 155.833 C 247.736 156.601,247.104 157.506,246.585 157.846 C 246.067 158.186,245.070 159.356,244.371 160.445 C 243.672 161.534,242.777 162.598,242.382 162.809 C 241.987 163.021,241.464 163.799,241.220 164.538 C 240.966 165.310,240.353 166.075,239.780 166.336 C 239.232 166.586,238.596 167.286,238.365 167.891 C 238.135 168.496,237.374 169.548,236.673 170.229 C 235.251 171.610,231.794 176.226,231.388 177.285 C 231.244 177.661,230.792 178.076,230.383 178.205 C 229.974 178.335,229.337 179.127,228.967 179.966 C 228.597 180.804,227.779 181.794,227.150 182.166 C 226.520 182.538,225.893 183.286,225.757 183.828 C 225.621 184.369,225.105 185.131,224.609 185.521 C 224.114 185.911,223.424 186.763,223.077 187.415 C 222.729 188.067,221.803 189.286,221.019 190.125 C 220.236 190.964,219.328 192.167,219.002 192.797 C 218.676 193.427,218.065 194.053,217.644 194.186 C 217.224 194.319,216.758 194.917,216.609 195.514 C 216.288 196.798,215.291 198.000,214.546 198.000 C 214.254 198.000,213.903 198.448,213.765 198.996 C 213.628 199.543,212.949 200.493,212.258 201.107 C 209.377 203.662,209.600 197.812,209.600 270.734 C 209.600 321.150,209.711 336.351,210.080 336.720 C 210.717 337.357,294.839 337.421,296.026 336.786 C 297.173 336.172,297.237 98.778,296.091 97.321 L 295.400 96.442 294.099 97.616 M287.425 126.426 L 288.600 127.651 288.726 141.526 C 288.859 156.034,288.716 157.628,287.162 159.035 C 285.768 160.297,263.629 160.206,262.356 158.933 C 260.455 157.033,261.243 151.747,263.643 150.298 C 264.096 150.024,264.812 149.131,265.235 148.313 C 265.657 147.496,266.350 146.641,266.774 146.414 C 267.199 146.187,267.666 145.596,267.813 145.100 C 267.961 144.605,268.707 143.570,269.472 142.800 C 271.422 140.836,273.906 137.742,274.584 136.431 C 275.131 135.374,276.617 133.614,279.173 131.000 C 279.818 130.340,280.532 129.310,280.759 128.711 C 280.987 128.110,281.760 127.344,282.486 127.001 C 283.209 126.658,284.250 126.116,284.800 125.795 C 286.119 125.025,286.072 125.014,287.425 126.426 M142.764 130.781 C 144.229 131.565,144.401 132.881,144.377 143.126 C 144.344 157.770,145.253 156.786,131.754 156.794 C 118.224 156.802,118.800 157.425,118.800 142.787 C 118.800 131.504,118.899 131.177,122.519 130.431 C 124.657 129.990,141.842 130.287,142.764 130.781 M180.688 130.628 C 182.326 130.962,182.464 131.932,182.475 143.134 C 182.490 158.043,183.619 156.800,170.055 156.800 L 160.058 156.800 159.229 155.746 C 158.155 154.381,157.923 132.806,158.967 131.376 C 159.732 130.329,176.409 129.754,180.688 130.628 M286.911 166.578 C 288.937 167.906,289.200 169.205,289.200 177.901 C 289.200 190.817,290.003 190.200,273.200 190.200 L 261.000 190.200 259.400 189.152 C 256.444 187.216,256.340 186.975,256.104 181.509 C 255.581 169.398,256.883 166.364,262.800 165.908 C 268.479 165.470,285.961 165.956,286.911 166.578 M248.708 177.250 C 250.275 177.837,250.380 179.037,250.492 197.505 C 250.637 221.540,252.329 219.314,233.948 219.269 C 219.880 219.235,219.608 219.193,218.340 216.806 C 216.825 213.954,217.675 207.810,219.799 206.262 C 220.365 205.850,221.186 204.812,221.622 203.956 C 222.059 203.100,222.684 202.400,223.011 202.400 C 223.339 202.400,223.892 201.687,224.241 200.815 C 224.589 199.943,225.221 199.120,225.644 198.986 C 226.067 198.852,226.655 198.170,226.951 197.471 C 227.247 196.772,228.157 195.480,228.974 194.600 C 229.791 193.720,230.755 192.505,231.116 191.899 C 231.477 191.294,232.068 190.705,232.429 190.591 C 232.790 190.476,233.366 189.670,233.708 188.799 C 234.050 187.928,234.751 187.020,235.265 186.782 C 235.779 186.544,236.470 185.776,236.800 185.075 C 237.130 184.374,237.793 183.627,238.274 183.416 C 238.755 183.205,239.342 182.607,239.579 182.087 C 240.300 180.504,242.520 177.947,243.984 177.015 C 245.406 176.109,245.696 176.124,248.708 177.250 M142.347 180.778 C 144.338 181.603,144.472 182.507,144.330 194.146 L 144.200 204.783 143.092 205.892 L 141.983 207.000 132.288 207.125 C 118.337 207.305,118.858 207.847,118.823 193.119 C 118.796 181.849,118.998 181.157,122.524 180.431 C 124.725 179.978,141.108 180.265,142.347 180.778 M180.658 180.579 C 182.347 181.003,182.471 181.885,182.485 193.635 C 182.504 208.615,183.777 207.316,169.264 207.124 C 157.143 206.963,158.400 208.524,158.400 193.632 C 158.400 180.282,158.284 180.726,161.862 180.408 C 164.853 180.142,179.446 180.275,180.658 180.579 M286.950 196.381 C 288.845 197.101,289.000 197.936,289.000 207.400 C 289.000 216.951,288.788 218.077,286.800 219.082 C 285.444 219.769,260.762 219.822,259.490 219.141 C 256.614 217.602,256.000 215.618,256.000 207.873 C 256.000 199.830,256.688 197.503,259.400 196.382 C 260.527 195.915,285.724 195.915,286.950 196.381 M47.000 197.557 C 45.667 197.759,45.266 198.051,44.600 199.303 C 44.160 200.129,43.472 200.911,43.070 201.039 C 42.669 201.168,42.018 202.024,41.625 202.942 C 41.231 203.860,40.584 204.879,40.186 205.206 C 39.789 205.533,38.975 206.568,38.377 207.507 C 37.780 208.445,36.820 209.583,36.245 210.036 C 35.670 210.488,35.200 211.121,35.200 211.442 C 35.200 211.764,34.570 212.657,33.800 213.427 C 33.030 214.197,32.400 215.055,32.400 215.335 C 32.400 215.614,31.754 216.463,30.965 217.222 C 30.176 217.980,29.183 219.272,28.760 220.094 C 28.336 220.916,27.549 221.877,27.010 222.230 C 26.472 222.583,25.914 223.242,25.770 223.695 C 25.626 224.148,24.899 225.127,24.154 225.872 C 23.409 226.617,22.800 227.478,22.800 227.784 C 22.800 228.091,22.387 228.670,21.883 229.071 C 21.378 229.472,20.281 230.835,19.444 232.100 C 18.607 233.365,17.753 234.400,17.547 234.400 C 17.340 234.400,16.831 235.194,16.416 236.164 C 15.976 237.189,15.306 238.040,14.814 238.196 C 14.338 238.347,13.702 239.128,13.361 239.981 C 13.027 240.816,12.407 241.656,11.984 241.849 C 11.560 242.042,10.626 243.122,9.907 244.250 C 7.012 248.790,6.157 249.921,5.200 250.473 C 3.831 251.263,2.939 254.372,3.877 255.086 C 4.740 255.744,90.532 255.628,91.192 254.968 C 91.501 254.659,91.450 254.204,91.014 253.368 C 90.679 252.726,90.404 251.990,90.402 251.734 C 90.401 251.477,89.674 250.580,88.787 249.739 C 87.900 248.899,86.883 247.550,86.526 246.742 C 86.170 245.934,85.474 245.089,84.979 244.863 C 84.484 244.638,83.871 243.820,83.615 243.046 C 83.352 242.248,82.799 241.527,82.339 241.381 C 81.892 241.239,81.288 240.552,80.997 239.853 C 80.705 239.155,80.065 238.227,79.575 237.792 C 79.084 237.356,78.074 236.055,77.329 234.900 C 76.585 233.745,75.791 232.800,75.565 232.800 C 75.340 232.800,74.802 232.001,74.370 231.024 C 73.938 230.048,73.263 229.147,72.871 229.022 C 72.479 228.898,71.772 228.002,71.300 227.032 C 70.829 226.062,70.083 225.153,69.642 225.013 C 69.201 224.874,68.730 224.410,68.594 223.983 C 68.459 223.556,67.661 222.337,66.821 221.275 C 65.982 220.212,64.999 218.771,64.637 218.072 C 64.275 217.372,63.708 216.800,63.376 216.800 C 63.043 216.800,62.432 216.009,62.016 215.036 C 61.600 214.066,60.912 213.162,60.487 213.027 C 60.061 212.893,59.386 212.055,58.985 211.167 C 58.584 210.278,57.934 209.379,57.541 209.168 C 57.147 208.958,56.327 207.934,55.719 206.893 C 55.111 205.852,54.135 204.596,53.550 204.101 C 52.966 203.607,52.376 202.757,52.239 202.213 C 52.102 201.668,51.633 201.032,51.197 200.798 C 50.760 200.564,50.038 199.659,49.593 198.787 C 49.148 197.914,48.742 197.226,48.692 197.257 C 48.641 197.288,47.880 197.423,47.000 197.557 M310.186 220.016 C 309.227 221.075,309.301 236.307,310.269 237.158 C 310.932 237.741,315.110 237.790,355.500 237.692 L 400.000 237.583 400.000 228.792 C 400.000 223.956,399.955 219.959,399.900 219.909 C 399.321 219.379,310.666 219.485,310.186 220.016 M246.400 225.419 C 246.730 225.533,247.720 226.243,248.600 226.996 L 250.200 228.366 250.330 236.129 C 250.546 249.014,251.059 248.536,236.800 248.732 C 223.856 248.910,219.903 248.622,218.477 247.396 L 217.400 246.471 217.267 238.952 C 217.068 227.714,217.689 225.763,221.629 225.235 C 223.713 224.957,245.531 225.118,246.400 225.419 M287.574 226.631 C 289.159 228.437,289.271 229.296,289.125 238.535 L 289.000 246.471 287.923 247.396 C 286.474 248.642,281.934 248.969,269.597 248.714 C 255.819 248.430,256.279 248.792,256.067 238.081 C 255.897 229.458,255.913 229.372,258.063 227.133 L 259.728 225.400 271.356 225.200 C 286.198 224.945,286.084 224.935,287.574 226.631 M142.388 231.101 C 144.275 232.051,144.320 232.348,144.320 243.800 C 144.320 258.235,145.012 257.339,133.705 257.538 C 123.855 257.711,121.939 257.492,120.270 256.000 L 119.000 254.866 119.000 244.065 L 119.000 233.265 120.000 232.189 C 121.550 230.520,122.006 230.452,131.800 230.426 C 139.795 230.404,141.182 230.493,142.388 231.101 M180.550 230.781 C 182.390 231.481,182.497 232.203,182.487 243.828 C 182.473 258.534,183.376 257.264,172.745 257.522 C 157.307 257.896,158.400 258.940,158.400 243.829 L 158.400 232.058 159.454 231.229 C 160.619 230.313,178.329 229.936,180.550 230.781 M310.018 248.767 C 309.330 250.052,309.438 336.010,310.128 336.700 C 310.578 337.150,317.918 337.239,353.235 337.222 C 376.646 337.210,396.745 337.201,397.900 337.200 L 400.000 337.200 400.000 292.600 L 400.000 248.000 355.214 248.000 C 311.476 248.000,310.419 248.018,310.018 248.767 M246.563 255.582 C 247.423 255.781,248.593 256.411,249.163 256.981 L 250.200 258.017 250.200 266.545 C 250.200 279.412,251.334 278.562,233.966 278.715 C 216.166 278.873,217.400 279.765,217.400 266.729 C 217.400 256.746,217.608 256.030,220.640 255.557 C 223.157 255.164,244.854 255.185,246.563 255.582 M287.482 255.905 C 288.860 256.692,289.196 258.827,289.196 266.800 C 289.196 279.597,290.247 278.800,273.365 278.800 C 259.975 278.800,258.662 278.656,258.181 277.139 C 258.052 276.733,257.769 276.400,257.553 276.400 C 256.476 276.400,256.000 273.546,256.002 267.113 C 256.005 258.443,256.617 256.612,259.848 255.597 C 261.687 255.019,286.416 255.295,287.482 255.905 M349.482 255.905 C 350.858 256.691,351.195 258.825,351.198 266.754 C 351.202 279.439,352.349 278.567,335.450 278.720 C 316.857 278.887,317.629 279.378,317.641 267.400 C 317.651 257.371,318.036 256.122,321.285 255.562 C 324.323 255.039,348.482 255.333,349.482 255.905 M388.126 255.564 C 391.426 256.107,391.385 255.975,391.510 266.313 C 391.673 279.741,392.908 278.885,373.610 278.716 C 356.819 278.568,358.640 279.947,358.480 267.258 C 358.341 256.172,358.373 256.059,361.845 255.578 C 364.612 255.194,385.809 255.183,388.126 255.564 M44.400 266.404 C 20.090 266.524,0.155 266.662,0.100 266.711 C 0.045 266.760,0.000 282.550,0.000 301.800 L 0.000 336.800 13.900 336.760 C 21.545 336.738,28.250 336.595,28.800 336.442 L 29.800 336.164 29.905 317.382 C 29.962 307.052,30.007 297.562,30.005 296.294 C 30.000 294.223,30.140 293.836,31.369 292.494 L 32.737 291.000 45.234 290.878 C 58.299 290.751,58.899 290.813,61.281 292.539 C 63.005 293.788,62.991 293.611,63.200 315.600 L 63.400 336.600 76.616 336.705 C 86.775 336.786,89.989 336.694,90.509 336.305 C 91.134 335.838,91.188 333.213,91.218 301.435 L 91.252 267.070 89.980 266.535 C 89.281 266.241,88.684 266.042,88.654 266.093 C 88.624 266.144,68.710 266.285,44.400 266.404 M142.209 281.239 C 144.139 282.163,144.352 283.491,144.377 294.726 C 144.408 308.500,145.290 307.600,131.773 307.600 C 118.133 307.600,119.000 308.499,119.000 294.365 L 119.000 283.653 120.185 282.416 C 120.837 281.735,121.917 281.015,122.585 280.814 C 124.590 280.212,140.797 280.563,142.209 281.239 M178.759 280.740 C 182.527 281.194,182.518 281.162,182.480 294.152 C 182.437 308.833,183.568 307.600,170.148 307.600 C 160.932 307.600,159.501 307.430,158.706 306.240 C 158.089 305.316,158.377 282.664,159.017 281.818 C 159.951 280.583,172.001 279.924,178.759 280.740 M246.378 284.394 C 249.963 285.422,250.559 287.459,250.341 297.938 C 250.127 308.237,251.244 307.600,233.393 307.600 C 216.074 307.600,217.546 308.544,217.290 297.268 C 217.062 287.263,217.716 284.846,220.800 284.290 C 222.845 283.920,245.043 284.011,246.378 284.394 M287.045 284.685 C 289.279 285.966,290.163 304.417,288.089 306.489 L 287.178 307.400 273.289 307.400 L 259.400 307.400 258.119 306.439 C 256.319 305.088,256.295 304.980,256.092 297.304 C 255.847 288.052,256.512 285.880,260.038 284.422 C 261.481 283.825,285.962 284.063,287.045 284.685 M349.214 285.400 C 350.967 286.964,351.200 288.278,351.200 296.600 C 351.200 308.760,352.623 307.800,334.600 307.800 C 316.317 307.800,317.800 308.793,317.800 296.549 C 317.800 283.764,316.973 284.335,335.259 284.490 C 347.668 284.595,348.362 284.640,349.214 285.400 M388.546 284.952 C 391.479 286.177,391.600 286.642,391.600 296.672 C 391.600 309.065,393.133 308.141,372.932 307.930 L 360.463 307.800 359.432 306.830 L 358.400 305.861 358.400 296.855 C 358.400 286.798,358.691 285.632,361.400 284.828 C 363.503 284.204,387.013 284.311,388.546 284.952 " stroke="none" fill="#f50c00" fill-rule="evenodd"/></g></svg>