<svg xmlns="http://www.w3.org/2000/svg" xmlns:xlink="http://www.w3.org/1999/xlink" id="svg" version="1.1" 
width="400" height="400" viewBox="0, 0, 400,400"><g id="svgg"><path xmlns="http://www.w3.org/2000/svg" 
id="path0" d="M197.770 111.542 C 197.373 112.215,196.533 112.979,195.905 113.239 C 195.276 113.500,194.496 114.227,194.171 114.856 C 193.846 115.485,193.397 116.000,193.174 116.000 C 192.951 116.000,192.077 116.675,191.232 117.500 C 189.042 119.639,184.039 124.200,176.200 131.206 C 174.660 132.582,173.182 134.019,172.916 134.399 C 172.650 134.779,171.902 135.309,171.254 135.578 C 170.606 135.846,169.987 136.406,169.878 136.823 C 169.769 137.239,169.040 137.957,168.258 138.419 C 167.476 138.880,166.720 139.621,166.579 140.066 C 166.438 140.510,165.755 141.111,165.061 141.401 C 164.368 141.691,163.390 142.485,162.888 143.164 C 162.386 143.844,161.793 144.400,161.570 144.400 C 161.347 144.400,159.826 145.705,158.190 147.300 C 153.326 152.041,147.948 157.053,145.600 159.034 C 144.390 160.054,142.704 161.589,141.854 162.445 C 141.004 163.300,140.088 164.000,139.818 164.000 C 139.549 164.000,139.119 164.459,138.863 165.021 C 138.608 165.582,137.803 166.290,137.075 166.594 C 136.348 166.898,135.542 167.609,135.285 168.173 C 135.028 168.738,134.627 169.200,134.394 169.200 C 134.161 169.200,133.122 170.014,132.085 171.009 C 131.048 172.005,129.570 173.354,128.800 174.008 C 128.030 174.661,125.837 176.682,123.926 178.498 C 119.933 182.293,119.757 182.455,113.600 187.963 C 111.070 190.226,108.250 192.780,107.333 193.639 C 106.416 194.498,105.476 195.200,105.243 195.200 C 105.011 195.200,104.554 195.715,104.229 196.344 C 103.904 196.973,103.095 197.712,102.432 197.987 C 101.769 198.261,101.128 198.796,101.008 199.176 C 100.887 199.555,100.127 200.214,99.318 200.640 C 98.265 201.194,97.749 201.793,97.501 202.750 C 97.286 203.578,96.846 204.168,96.344 204.299 C 93.948 204.925,97.825 205.189,109.600 205.199 C 116.750 205.206,123.012 205.321,123.516 205.456 C 125.666 206.032,125.600 204.656,125.600 248.606 C 125.600 275.860,125.736 289.508,126.014 290.026 C 126.622 291.162,176.542 291.250,176.977 290.116 C 177.121 289.740,177.226 276.065,177.210 259.726 C 177.179 227.969,177.184 227.879,179.127 226.839 C 179.909 226.421,217.559 226.149,218.830 226.552 C 219.144 226.652,219.874 226.836,220.452 226.962 C 222.861 227.486,222.822 226.943,222.790 259.816 C 222.768 282.083,222.880 289.814,223.229 290.235 C 223.793 290.915,272.534 291.082,273.600 290.409 C 274.125 290.077,274.225 284.820,274.400 248.379 L 274.600 206.729 275.544 205.965 C 276.432 205.246,277.291 205.200,289.821 205.200 C 298.277 205.200,303.243 205.054,303.400 204.800 C 303.536 204.580,303.476 204.400,303.267 204.400 C 303.058 204.400,302.605 203.694,302.259 202.832 C 301.914 201.970,301.270 201.149,300.826 201.008 C 300.383 200.868,299.641 200.268,299.177 199.676 C 298.713 199.084,298.004 198.420,297.602 198.200 C 297.201 197.980,295.371 196.428,293.536 194.751 C 291.701 193.074,289.030 190.634,287.600 189.328 C 286.170 188.023,283.830 185.886,282.400 184.580 C 280.970 183.274,279.058 181.439,278.152 180.503 C 277.245 179.566,276.294 178.800,276.038 178.800 C 275.782 178.800,275.218 178.198,274.784 177.463 C 274.350 176.728,273.517 175.908,272.932 175.642 C 271.823 175.137,271.696 175.026,266.773 170.255 C 265.108 168.641,263.461 167.159,263.112 166.961 C 262.282 166.488,252.350 157.542,249.944 155.100 C 248.915 154.055,247.915 153.200,247.722 153.200 C 247.530 153.200,247.067 152.683,246.694 152.052 C 246.321 151.420,245.478 150.681,244.821 150.409 C 244.164 150.137,243.518 149.571,243.385 149.153 C 243.252 148.734,242.618 148.119,241.975 147.787 C 241.333 147.455,240.509 146.728,240.144 146.171 C 239.780 145.615,238.960 144.890,238.323 144.560 C 237.686 144.231,236.976 143.545,236.744 143.036 C 236.512 142.527,235.755 141.861,235.061 141.555 C 234.367 141.250,233.622 140.595,233.405 140.100 C 233.188 139.605,232.889 139.200,232.740 139.200 C 232.206 139.200,216.294 124.908,215.276 123.513 C 214.987 123.119,214.235 122.528,213.604 122.202 C 212.973 121.876,212.350 121.273,212.220 120.863 C 212.090 120.453,211.356 119.779,210.589 119.366 C 209.823 118.953,209.094 118.295,208.969 117.903 C 208.845 117.512,208.230 116.926,207.603 116.602 C 206.976 116.277,206.077 115.469,205.604 114.806 C 205.132 114.143,204.519 113.600,204.242 113.600 C 203.620 113.600,202.000 111.920,202.000 111.274 C 202.000 111.013,201.753 110.800,201.450 110.800 C 201.148 110.800,200.358 110.692,199.697 110.559 C 198.659 110.352,198.394 110.487,197.770 111.542 M306.423 259.501 C 304.787 259.692,304.179 260.091,302.368 262.166 L 301.000 263.732 300.800 279.237 C 300.607 294.217,300.571 294.781,299.758 295.871 L 298.915 297.000 285.358 297.243 C 277.901 297.377,270.713 297.512,269.383 297.543 C 263.269 297.687,260.871 305.393,265.522 309.957 L 267.400 311.800 283.086 312.000 C 300.561 312.223,299.732 312.077,300.420 315.044 C 300.618 315.900,300.785 323.029,300.790 330.887 L 300.800 345.173 302.207 346.687 C 302.980 347.519,303.880 348.515,304.207 348.900 C 306.022 351.041,313.012 349.493,314.833 346.546 L 315.783 345.009 315.861 330.261 C 315.968 310.004,313.939 312.000,334.428 312.000 C 350.525 312.000,350.274 312.039,352.130 309.235 C 353.519 307.136,353.668 302.485,352.424 300.048 C 351.027 297.309,350.306 297.200,333.648 297.200 C 314.020 297.200,315.984 299.217,315.825 278.899 C 315.694 262.115,315.561 261.329,312.678 260.284 C 310.711 259.571,308.354 259.276,306.423 259.501 " stroke="none" fill="#fff" fill-rule="evenodd"></path></g></svg>