<svg xmlns="http://www.w3.org/2000/svg" xmlns:xlink="http://www.w3.org/1999/xlink" id="svg" version="1.1" width="400" height="401.7699115044248" viewBox="0, 0, 400,401.7699115044248" fill="white">
    <g id="svgg">
        <path id="path1" d="M67.200 48.004 C 65.550 48.165,63.552 48.569,62.759 48.903 C 61.967 49.237,60.527 
        49.632,59.559 49.783 C 57.819 50.053,56.877 50.425,52.200 52.689 C 46.968 55.222,39.833 61.431,36.903 
        66.000 C 36.127 67.210,35.156 68.688,34.746 69.284 C 34.336 69.880,34.000 70.621,34.000 70.930 C 34.000 
        71.239,33.671 71.921,33.268 72.446 C 32.068 74.009,29.850 81.148,29.180 85.600 C 28.931 87.255,28.827 
        124.188,28.895 187.200 L 29.000 286.200 29.953 290.000 C 30.890 293.735,31.719 295.973,33.235 298.854 
        C 33.656 299.654,34.000 300.572,34.000 300.892 C 34.000 301.213,34.360 301.802,34.800 302.200 C 
        35.240 302.598,35.600 303.152,35.600 303.431 C 35.600 303.710,36.050 304.473,36.600 305.127 C 37.150 
        305.781,37.600 306.444,37.600 306.601 C 37.600 308.114,47.796 316.942,51.200 318.377 C 51.750 318.608,52.470 
        318.963,52.800 319.164 C 54.605 320.264,58.027 321.565,59.600 321.749 C 60.590 321.864,62.030 322.283,62.800 
        322.680 C 64.107 323.352,66.491 323.413,98.880 323.600 C 126.579 323.760,133.665 323.905,134.080 324.320 C 
        134.492 324.732,134.641 330.450,134.800 351.920 C 134.979 376.172,135.069 379.104,135.658 380.000 C 136.020 
        380.550,136.439 381.411,136.589 381.913 C 137.466 384.847,141.449 386.946,146.200 386.977 L 149.800 387.000 
        153.200 384.643 C 156.378 382.440,158.191 381.034,160.256 379.172 C 160.727 378.748,161.300 378.400,161.528 
        378.400 C 161.756 378.400,162.216 378.127,162.550 377.793 C 163.641 376.701,166.798 374.400,167.203 374.400 
        C 167.422 374.400,167.600 374.257,167.600 374.082 C 167.600 373.907,168.545 373.053,169.700 372.184 C 170.855 
        371.315,172.025 370.391,172.300 370.130 C 172.575 369.870,173.700 369.074,174.800 368.361 C 175.900 
        367.648,176.800 366.946,176.800 366.800 C 176.800 366.654,177.745 365.930,178.900 365.191 C 180.055 
        364.452,182.343 362.757,183.984 361.424 C 185.625 360.091,189.225 357.347,191.984 355.326 C 196.551 
        351.981,201.974 347.911,204.727 345.763 C 205.717 344.990,210.082 341.710,215.700 337.517 C 216.965 
        336.573,218.437 335.440,218.970 335.000 C 219.503 334.560,220.593 333.750,221.392 333.200 C 222.192 
        332.650,224.770 330.673,227.123 328.806 C 229.475 326.940,232.030 325.050,232.800 324.606 C 234.178 
        323.813,234.985 323.797,284.000 323.600 L 333.800 323.400 335.600 322.509 C 336.590 322.019,337.906 
        321.614,338.525 321.609 C 341.496 321.586,350.767 316.203,355.200 311.928 C 358.546 308.701,362.055 
        303.910,363.610 300.445 C 364.065 299.430,364.789 297.934,365.219 297.121 C 365.649 296.307,366.000 
        295.385,366.000 295.072 C 366.000 294.758,366.451 293.119,367.003 291.429 L 368.006 288.357 367.903 
        184.861 C 367.806 87.595,367.758 81.301,367.109 80.311 C 366.729 79.731,366.298 78.479,366.150 77.528 
        C 364.896 69.455,354.613 57.146,345.400 52.690 C 344.080 52.051,342.364 51.202,341.586 50.802 C 340.808 
        50.402,339.278 49.945,338.186 49.785 C 337.094 49.626,335.705 49.245,335.100 48.938 C 334.495 48.631,332.245 
        48.209,330.100 48.000 C 325.508 47.553,71.788 47.557,67.200 48.004 M271.656 143.991 C 272.615 144.426,273.790 
        144.786,274.267 144.791 C 275.350 144.802,279.643 148.178,280.630 149.796 C 283.221 154.039,283.325 
        154.389,283.363 159.000 C 283.409 164.456,282.390 167.131,279.000 170.455 C 277.633 171.796,274.720 
        173.600,273.923 173.600 C 273.629 173.600,272.671 174.005,271.794 174.500 L 270.200 175.400 198.782 
        175.400 C 131.439 175.400,127.304 175.360,126.296 174.700 C 125.709 174.315,124.977 174.000,124.670 
        174.000 C 122.753 174.000,117.525 170.278,116.523 168.200 C 116.205 167.540,115.668 166.485,115.329 
        165.856 C 114.401 164.130,113.966 159.622,114.399 156.210 C 115.152 150.271,118.291 146.683,124.774 
        144.352 L 127.800 143.265 198.856 143.232 C 268.831 143.200,269.939 143.212,271.656 143.991 M207.304 
        207.600 C 208.556 208.040,209.874 208.400,210.234 208.400 C 212.412 208.400,217.089 212.959,218.727 
        216.678 C 220.022 219.621,220.287 226.965,219.145 228.258 C 218.784 228.666,218.370 229.562,218.224 
        230.250 C 217.919 231.687,214.039 236.000,213.051 236.000 C 212.693 236.000,212.400 236.164,212.400 
        236.365 C 212.400 238.401,131.467 239.747,125.108 237.817 C 117.025 235.364,113.030 228.668,114.351 
        219.787 C 115.176 214.238,120.005 208.443,123.849 208.390 C 124.262 208.384,125.320 208.038,126.200 
        207.622 C 128.769 206.406,203.849 206.386,207.304 207.600 " stroke="none" fill="#fff" fill-rule="evenodd">
        </path>
    </g>
</svg>