<svg xmlns="http://www.w3.org/2000/svg" xmlns:xlink="http://www.w3.org/1999/xlink" id="svg" version="1.1" width="400" height="400" viewBox="0, 0, 400,400">
<g id="svgg">
    <path id="path0" d="M188.455 122.575 C 186.424 122.903,184.677 123.436,184.007 123.932 C 183.400 
    124.380,181.893 125.041,180.658 125.400 C 179.422 125.760,177.672 126.671,176.768 127.427 C 175.864 
    128.182,174.878 128.800,174.578 128.800 C 174.277 128.800,173.259 129.519,172.315 130.398 C 171.372 
    131.277,169.925 132.582,169.101 133.298 C 166.660 135.418,166.022 136.102,165.784 136.850 C 165.660 
    137.240,165.225 137.665,164.816 137.795 C 164.408 137.924,163.700 138.826,163.243 139.798 C 162.786 
    140.770,162.091 141.737,161.698 141.948 C 161.305 142.158,160.650 143.291,160.242 144.465 C 159.834 
    145.639,159.065 147.251,158.533 148.046 C 157.932 148.945,157.267 150.987,156.776 153.446 C 156.342 
    155.621,155.686 158.300,155.319 159.400 C 154.305 162.436,154.467 168.407,155.704 173.600 C 156.254 
    175.910,156.920 178.970,157.184 180.400 C 157.451 181.845,158.006 183.368,158.434 183.828 C 158.857 
    184.283,159.584 185.782,160.049 187.158 C 160.514 188.535,161.151 189.760,161.464 189.880 C 161.778 
    190.000,162.395 190.806,162.836 191.671 C 163.742 193.446,172.943 202.800,173.783 202.800 C 174.083 
    202.800,174.762 203.315,175.291 203.943 C 175.839 204.595,177.135 205.380,178.304 205.768 C 179.432 
    206.143,180.853 206.843,181.463 207.325 C 182.183 207.894,184.045 208.497,186.785 209.048 C 189.103 
    209.515,192.439 210.206,194.197 210.584 C 197.607 211.318,202.594 211.261,206.000 210.449 C 206.990 
    210.213,209.942 209.585,212.560 209.053 C 215.605 208.435,217.442 207.867,217.660 207.478 C 217.848 
    207.143,219.263 206.387,220.806 205.798 C 222.349 205.208,223.796 204.382,224.020 203.962 C 224.245 
    203.542,225.038 202.944,225.783 202.633 C 226.528 202.321,227.431 201.619,227.790 201.071 C 228.149 
    200.524,228.877 199.967,229.410 199.833 C 229.942 199.700,230.588 199.188,230.846 198.695 C 231.105 
    198.203,232.016 197.080,232.871 196.200 C 236.121 192.856,236.567 192.317,237.276 190.879 C 237.677 
    190.065,238.455 188.788,239.004 188.040 C 239.553 187.291,240.200 185.943,240.442 185.043 C 240.684 
    184.143,241.239 182.906,241.675 182.294 C 244.780 177.935,244.726 154.790,241.602 150.403 C 241.169 
    149.795,240.547 148.266,240.218 147.004 C 239.883 145.718,239.213 144.333,238.692 143.850 C 238.181 
    143.377,237.346 142.127,236.836 141.074 C 236.326 140.020,235.486 138.882,234.970 138.543 C 234.454 
    138.205,233.909 137.545,233.761 137.076 C 233.432 136.042,229.525 132.157,228.478 131.825 C 228.066 
    131.694,227.508 131.185,227.240 130.693 C 226.972 130.202,226.008 129.454,225.100 129.031 C 224.191 
    128.608,222.923 127.760,222.281 127.147 C 221.640 126.534,220.099 125.739,218.857 125.380 C 217.616 
    125.022,216.291 124.452,215.914 124.115 C 213.903 122.317,196.196 121.324,188.455 122.575 M160.600 
    220.395 C 153.413 221.786,147.722 223.255,146.759 223.967 C 146.146 224.420,144.821 225.011,143.816 
    225.280 C 142.810 225.549,141.370 226.352,140.616 227.063 C 139.861 227.775,138.689 228.644,138.011 
    228.994 C 136.163 229.950,128.400 238.373,128.400 239.421 C 128.400 239.708,127.895 240.360,127.278 
    240.871 C 126.546 241.477,125.904 242.635,125.434 244.200 C 125.038 245.520,124.452 246.897,124.131 
    247.260 C 122.205 249.441,120.881 275.792,122.633 277.073 C 123.645 277.813,276.380 277.860,277.120 
    277.120 C 278.542 275.698,277.533 252.159,275.959 250.030 C 275.530 249.450,275.036 248.081,274.861 
    246.988 C 274.509 244.792,273.319 242.000,272.734 242.000 C 272.528 242.000,272.078 241.325,271.735 
    240.500 C 270.736 238.101,263.093 229.821,260.724 228.572 C 260.133 228.260,259.379 227.619,259.049 
    227.149 C 258.719 226.678,257.429 225.948,256.183 225.527 C 254.936 225.107,253.440 224.412,252.858 
    223.983 C 252.272 223.551,249.749 222.764,247.200 222.218 C 244.670 221.675,241.970 221.004,241.200 
    220.727 C 239.600 220.151,163.480 219.837,160.600 220.395 " stroke="none" fill="#fff" fill-rule="evenodd">
    </path>
</g>
</svg>