<svg xmlns="http://www.w3.org/2000/svg" xmlns:xlink="http://www.w3.org/1999/xlink" version="1.1" id="Layer_1" x="0px" y="0px" width="100%" viewBox="0 0 255 229" enable-background="new 0 0 255 229" xml:space="preserve">
<path fill="#FFA501" opacity="1.000000" stroke="none" d=" M98.687286,9.559702   C148.124603,-3.048370 193.130554,16.468607 218.559402,53.313850   C264.429138,119.777000 223.188690,212.826263 143.161575,223.709457   C82.904495,231.904037 27.243607,190.278183 19.384169,129.718964   C11.444098,68.538429 51.708786,22.316957 98.687286,9.559702  M156.303940,79.451889   C148.506058,84.198914 145.688278,91.746307 148.858444,99.394485   C151.795029,106.479141 159.442413,110.359459 166.786560,108.491295   C175.575653,106.255577 180.308197,97.868881 177.947952,88.711838   C175.789215,80.336609 166.641006,76.138962 156.303940,79.451889  M83.937401,78.992584   C72.863319,81.396126 70.039467,90.621597 72.481750,99.064392   C74.849922,107.251007 84.848099,111.146721 92.889755,107.563782   C99.436958,104.646690 102.736748,97.700089 101.130280,90.216164   C99.529671,82.759544 94.016106,78.960823 83.937401,78.992584  M156.606445,143.004227   C158.660812,144.054855 160.715179,145.105484 162.769547,146.156097   C163.047760,145.601166 163.325974,145.046234 163.604187,144.491302   C155.053024,131.501572 142.956635,124.355064 127.238922,124.087196   C112.723335,123.839821 96.382118,133.900177 92.210854,145.771744   C94.533607,145.119904 97.129669,144.433807 98.565262,142.755219   C114.251839,124.413589 140.203110,124.203102 156.606445,143.004227  z"/>
<path fill="#4D4B49" opacity="1.000000" stroke="none" d=" M156.661072,79.280090   C166.641006,76.138962 175.789215,80.336609 177.947952,88.711838   C180.308197,97.868881 175.575653,106.255577 166.786560,108.491295   C159.442413,110.359459 151.795029,106.479141 148.858444,99.394485   C145.688278,91.746307 148.506058,84.198914 156.661072,79.280090  z"/>
<path fill="#4C4B49" opacity="1.000000" stroke="none" d=" M84.365669,78.976700   C94.016106,78.960823 99.529671,82.759544 101.130280,90.216164   C102.736748,97.700089 99.436958,104.646690 92.889755,107.563782   C84.848099,111.146721 74.849922,107.251007 72.481750,99.064392   C70.039467,90.621597 72.863319,81.396126 84.365669,78.976700  z"/>
<path fill="#554F46" opacity="1.000000" stroke="none" d=" M156.370499,142.729034   C140.203110,124.203102 114.251839,124.413589 98.565262,142.755219   C97.129669,144.433807 94.533607,145.119904 92.210854,145.771744   C96.382118,133.900177 112.723335,123.839821 127.238922,124.087196   C142.956635,124.355064 155.053024,131.501572 163.604187,144.491302   C163.325974,145.046234 163.047760,145.601166 162.769547,146.156097   C160.715179,145.105484 158.660812,144.054855 156.370499,142.729034  z"/>
</svg>