<svg xmlns="http://www.w3.org/2000/svg" xmlns:xlink="http://www.w3.org/1999/xlink" id="svg" version="1.1" width="400" height="400" viewBox="0, 0, 400,400"><g id="svgg"><path id="path0" d="M193.200 76.387 C 191.550 76.560,188.490 77.067,186.400 77.514 C 184.310 77.962,181.340 78.445,179.800 78.589 C 175.670 78.975,172.685 79.608,171.955 80.254 C 171.601 80.567,169.711 81.191,167.755 81.639 C 165.800 82.087,163.300 82.893,162.200 83.431 C 161.100 83.968,159.055 84.753,157.656 85.176 C 156.256 85.598,154.726 86.301,154.256 86.739 C 153.785 87.176,152.340 87.903,151.045 88.356 C 149.750 88.808,148.439 89.538,148.131 89.977 C 147.823 90.417,146.861 90.968,145.993 91.202 C 145.125 91.436,143.740 92.246,142.914 93.002 C 142.088 93.759,140.917 94.486,140.311 94.620 C 139.705 94.753,138.893 95.262,138.505 95.752 C 138.117 96.242,137.035 97.071,136.100 97.595 C 135.165 98.119,134.400 98.679,134.400 98.839 C 134.400 99.000,133.685 99.657,132.811 100.299 C 127.792 103.990,120.498 111.390,116.207 117.145 C 115.983 117.445,115.215 118.243,114.500 118.919 C 113.785 119.594,113.200 120.398,113.200 120.704 C 113.200 121.011,112.671 121.790,112.025 122.436 C 111.379 123.083,110.736 123.972,110.596 124.414 C 110.456 124.855,109.708 126.045,108.935 127.058 C 108.162 128.071,107.276 129.617,106.967 130.495 C 106.657 131.372,105.872 132.696,105.222 133.437 C 104.571 134.177,103.923 135.406,103.780 136.167 C 103.637 136.928,102.915 138.490,102.175 139.638 C 101.436 140.786,100.623 142.732,100.368 143.963 C 100.114 145.193,99.596 146.650,99.218 147.200 C 98.322 148.503,98.064 149.247,97.374 152.524 C 97.059 154.022,96.363 156.182,95.828 157.324 C 95.116 158.843,94.683 160.903,94.214 165.000 C 93.861 168.080,93.231 171.770,92.812 173.200 C 91.257 178.513,91.418 191.996,93.124 199.200 C 93.566 201.070,94.044 203.860,94.186 205.400 C 94.612 210.031,95.151 212.498,96.181 214.528 C 96.719 215.588,97.273 217.298,97.412 218.328 C 97.769 220.976,98.386 222.871,99.193 223.800 C 99.576 224.240,100.195 225.860,100.571 227.400 C 100.974 229.056,101.637 230.608,102.193 231.200 C 102.710 231.750,103.437 233.139,103.808 234.287 C 104.179 235.434,104.895 236.818,105.399 237.361 C 105.902 237.904,106.629 239.215,107.014 240.274 C 107.400 241.333,108.053 242.502,108.466 242.871 C 108.879 243.240,109.479 244.169,109.799 244.936 C 110.120 245.703,110.939 246.931,111.619 247.665 C 112.300 248.399,113.135 249.540,113.475 250.200 C 113.814 250.860,114.598 251.807,115.215 252.305 C 115.833 252.803,116.455 253.740,116.597 254.387 C 116.742 255.049,117.196 255.672,117.632 255.810 C 118.059 255.946,118.680 256.581,119.011 257.222 C 119.342 257.862,120.150 258.664,120.807 259.004 C 121.463 259.343,122.000 259.810,122.000 260.042 C 122.000 260.403,123.151 261.741,125.600 264.224 C 127.389 266.038,129.912 268.116,130.705 268.428 C 131.203 268.624,131.812 269.229,132.060 269.772 C 132.308 270.316,133.025 270.940,133.655 271.159 C 134.284 271.379,135.217 272.009,135.727 272.559 C 136.237 273.110,137.568 274.019,138.684 274.579 C 139.801 275.140,140.820 275.874,140.948 276.210 C 141.077 276.546,142.042 277.189,143.092 277.638 C 144.141 278.087,145.362 278.793,145.804 279.207 C 146.246 279.620,147.647 280.419,148.917 280.980 C 150.187 281.542,151.329 282.271,151.456 282.601 C 151.582 282.930,151.984 283.200,152.348 283.200 C 153.460 283.200,156.909 284.609,158.556 285.736 C 159.412 286.321,160.348 286.800,160.636 286.800 C 162.215 286.800,165.366 287.791,166.312 288.584 C 167.042 289.197,168.386 289.657,170.400 289.983 C 174.051 290.574,178.057 291.556,178.600 291.994 C 181.354 294.212,215.226 293.882,222.088 291.570 C 223.455 291.110,226.199 290.471,228.187 290.150 C 230.654 289.752,232.246 289.258,233.207 288.593 C 233.981 288.058,235.932 287.322,237.542 286.959 C 239.355 286.549,240.852 285.943,241.475 285.365 C 242.353 284.552,245.903 283.200,247.162 283.200 C 247.403 283.200,247.600 283.024,247.600 282.808 C 247.600 282.348,250.499 280.800,251.360 280.800 C 251.685 280.800,252.793 280.071,253.822 279.181 C 254.851 278.290,256.192 277.462,256.802 277.340 C 257.411 277.218,258.296 276.596,258.767 275.959 C 259.238 275.322,259.965 274.800,260.381 274.800 C 260.798 274.800,261.647 274.296,262.269 273.680 C 262.891 273.064,264.248 271.980,265.285 271.271 C 266.322 270.562,267.312 269.735,267.485 269.432 C 267.658 269.130,268.438 268.508,269.218 268.050 C 269.998 267.592,271.039 266.673,271.530 266.009 C 272.022 265.344,272.674 264.800,272.979 264.800 C 273.285 264.800,273.918 264.179,274.387 263.421 C 274.856 262.662,275.578 261.934,275.991 261.803 C 276.404 261.672,277.120 260.924,277.581 260.142 C 278.043 259.360,278.749 258.634,279.151 258.529 C 279.553 258.424,280.171 257.731,280.525 256.988 C 280.879 256.246,281.608 255.351,282.146 254.999 C 282.684 254.646,283.230 253.933,283.361 253.414 C 283.491 252.894,284.337 251.689,285.240 250.735 C 286.143 249.781,287.062 248.501,287.283 247.892 C 287.504 247.282,288.037 246.594,288.468 246.363 C 288.900 246.133,289.604 245.123,290.034 244.120 C 290.464 243.117,291.247 241.784,291.774 241.158 C 292.300 240.532,292.948 239.341,293.214 238.510 C 293.479 237.680,294.133 236.531,294.667 235.958 C 295.201 235.385,295.980 233.787,296.398 232.406 C 296.816 231.026,297.550 229.479,298.029 228.969 C 298.536 228.430,299.202 226.776,299.621 225.015 C 300.018 223.350,300.731 221.358,301.207 220.589 C 301.691 219.806,302.331 217.655,302.664 215.696 C 302.990 213.773,303.696 211.229,304.233 210.041 C 307.333 203.188,307.328 166.775,304.226 160.218 C 303.671 159.046,302.953 156.453,302.630 154.456 C 302.258 152.154,301.739 150.415,301.214 149.704 C 300.757 149.087,300.034 147.115,299.606 145.323 C 299.089 143.159,298.506 141.743,297.872 141.108 C 297.332 140.568,296.696 139.207,296.410 137.976 C 296.131 136.779,295.484 135.350,294.973 134.800 C 294.462 134.250,293.593 132.782,293.043 131.537 C 292.493 130.292,291.838 129.147,291.588 128.993 C 291.338 128.838,290.783 127.894,290.355 126.895 C 289.927 125.896,289.055 124.546,288.418 123.894 C 287.781 123.242,287.028 122.144,286.745 121.454 C 286.462 120.764,285.804 119.860,285.282 119.445 C 284.760 119.029,284.201 118.333,284.040 117.897 C 283.531 116.519,274.467 107.076,268.974 102.200 C 267.735 101.100,266.244 99.751,265.661 99.201 C 265.077 98.652,263.922 97.895,263.094 97.518 C 262.266 97.142,261.477 96.546,261.343 96.195 C 261.208 95.843,260.304 95.183,259.335 94.727 C 258.366 94.272,257.098 93.396,256.517 92.781 C 255.937 92.166,254.873 91.553,254.152 91.417 C 253.431 91.282,252.099 90.551,251.192 89.793 C 250.285 89.036,248.791 88.215,247.871 87.971 C 246.952 87.726,245.645 87.107,244.967 86.594 C 244.289 86.081,242.669 85.362,241.367 84.997 C 240.065 84.632,238.516 83.991,237.925 83.573 C 237.334 83.155,235.174 82.440,233.125 81.985 C 231.076 81.529,228.849 80.833,228.175 80.436 C 226.609 79.515,224.044 78.952,218.854 78.392 C 216.573 78.145,213.423 77.616,211.854 77.215 C 208.536 76.367,197.911 75.896,193.200 76.387 M194.600 108.379 C 194.600 125.616,194.584 125.963,193.757 127.071 L 192.914 128.200 179.995 128.306 C 164.727 128.430,165.200 128.541,165.200 124.847 C 165.200 123.001,165.460 122.025,166.444 120.182 C 167.128 118.901,167.943 116.990,168.256 115.937 C 168.568 114.884,169.340 113.458,169.971 112.767 C 170.602 112.077,171.230 110.949,171.368 110.262 C 171.505 109.574,172.164 108.332,172.831 107.502 C 173.498 106.671,174.302 105.376,174.616 104.623 C 174.931 103.870,175.522 103.016,175.931 102.727 C 176.339 102.437,176.901 101.750,177.179 101.200 C 177.458 100.650,178.207 99.660,178.843 99.000 C 179.480 98.340,181.036 96.676,182.300 95.302 C 183.565 93.928,184.798 92.803,185.041 92.802 C 185.283 92.801,186.035 92.271,186.711 91.625 C 187.387 90.979,188.676 90.230,189.575 89.960 C 190.474 89.691,191.418 89.219,191.673 88.912 C 192.059 88.447,192.344 88.560,193.369 89.584 L 194.600 90.816 194.600 108.379 M210.048 90.217 C 211.010 90.556,212.338 91.347,212.999 91.973 C 213.659 92.599,214.607 93.234,215.104 93.384 C 215.602 93.534,216.275 94.171,216.600 94.800 C 216.925 95.429,217.563 96.061,218.018 96.206 C 218.473 96.350,219.126 97.056,219.469 97.775 C 219.811 98.494,220.611 99.389,221.246 99.763 C 221.881 100.138,222.400 100.680,222.400 100.967 C 222.400 101.253,222.989 102.112,223.708 102.875 C 224.428 103.638,225.373 105.058,225.808 106.031 C 226.244 107.004,226.981 108.160,227.446 108.600 C 227.911 109.040,228.592 110.233,228.960 111.251 C 229.328 112.269,229.975 113.415,230.397 113.797 C 230.820 114.180,231.561 115.687,232.043 117.146 C 232.526 118.606,233.344 120.427,233.861 121.193 C 235.150 123.105,235.186 126.538,233.930 127.874 L 233.061 128.800 220.353 128.800 L 207.645 128.800 206.522 127.835 L 205.400 126.870 205.288 109.229 L 205.176 91.588 206.170 90.594 C 207.333 89.430,207.714 89.393,210.048 90.217 M166.836 94.632 C 167.445 95.184,167.460 95.378,166.964 96.328 C 166.657 96.917,166.404 97.739,166.402 98.153 C 166.401 98.567,165.784 99.487,165.030 100.197 C 164.261 100.923,163.475 102.180,163.236 103.066 C 163.002 103.933,162.266 105.254,161.600 106.000 C 160.934 106.746,160.198 108.066,159.964 108.932 C 159.731 109.799,159.103 111.168,158.569 111.976 C 158.034 112.783,157.320 114.507,156.982 115.806 C 156.643 117.106,155.957 118.716,155.457 119.384 C 154.957 120.053,154.229 121.798,153.840 123.262 C 153.147 125.868,152.332 127.020,150.526 127.950 C 148.766 128.856,125.897 128.549,124.694 127.603 L 123.681 126.805 124.362 124.503 C 124.879 122.755,125.303 122.074,126.123 121.678 C 126.717 121.390,127.476 120.627,127.810 119.981 C 128.144 119.336,128.833 118.535,129.342 118.201 C 129.851 117.868,130.497 117.166,130.778 116.642 C 131.058 116.117,131.709 115.496,132.225 115.262 C 132.740 115.027,133.424 114.332,133.745 113.717 C 134.066 113.103,134.970 112.259,135.756 111.842 C 136.541 111.424,137.290 110.746,137.421 110.335 C 137.551 109.923,138.374 109.221,139.249 108.775 C 140.123 108.329,140.944 107.690,141.072 107.355 C 141.201 107.021,142.272 106.202,143.453 105.535 C 144.634 104.869,145.600 104.151,145.600 103.940 C 145.600 103.729,146.545 103.133,147.700 102.616 C 148.855 102.100,150.004 101.336,150.253 100.919 C 150.502 100.503,151.733 99.813,152.990 99.386 C 154.246 98.959,155.435 98.307,155.633 97.939 C 155.830 97.570,157.209 96.872,158.696 96.389 C 160.183 95.905,161.580 95.291,161.800 95.026 C 163.040 93.526,165.409 93.341,166.836 94.632 M237.699 94.608 C 238.253 95.162,239.602 95.881,240.696 96.206 C 241.791 96.531,243.335 97.313,244.127 97.942 C 244.920 98.572,246.399 99.320,247.414 99.604 C 248.477 99.902,249.511 100.503,249.850 101.020 C 250.174 101.515,251.015 102.150,251.719 102.431 C 252.424 102.713,253.645 103.496,254.434 104.172 C 255.223 104.847,256.393 105.713,257.034 106.095 C 259.284 107.437,264.185 111.684,267.000 114.732 C 267.220 114.971,268.615 116.334,270.100 117.763 C 271.585 119.191,272.800 120.553,272.800 120.788 C 272.800 121.024,273.238 121.417,273.773 121.660 C 275.566 122.477,276.494 126.306,275.210 127.590 C 274.384 128.416,274.122 128.430,261.810 128.316 L 249.251 128.200 248.069 127.067 C 247.298 126.327,246.649 125.076,246.202 123.467 C 245.826 122.110,245.256 120.705,244.937 120.345 C 244.237 119.554,242.800 115.875,242.800 114.873 C 242.800 114.479,242.342 113.535,241.783 112.778 C 241.223 112.020,240.498 110.482,240.172 109.359 C 239.845 108.237,239.139 106.906,238.602 106.402 C 238.065 105.898,237.325 104.566,236.957 103.443 C 236.589 102.319,235.789 100.950,235.178 100.400 C 234.567 99.850,233.849 98.680,233.582 97.800 C 233.314 96.920,232.940 96.002,232.749 95.761 C 232.537 95.492,232.674 95.085,233.101 94.713 C 234.694 93.326,236.378 93.287,237.699 94.608 M146.184 139.426 C 148.090 140.675,148.018 147.554,146.036 153.527 C 145.022 156.583,144.828 158.359,144.423 168.312 C 143.924 180.569,145.711 179.600,123.600 179.600 C 106.812 179.600,104.820 179.414,103.723 177.738 C 102.921 176.514,103.315 171.151,104.413 168.367 C 104.823 167.327,105.421 164.592,105.742 162.290 C 106.290 158.358,107.070 155.975,107.997 155.402 C 108.219 155.265,108.400 154.663,108.400 154.064 C 108.400 152.202,109.431 148.888,110.501 147.310 C 111.064 146.479,111.652 145.170,111.809 144.400 C 112.255 142.196,113.210 140.906,115.178 139.848 L 117.000 138.867 131.114 138.834 C 143.289 138.805,145.359 138.886,146.184 139.426 M192.544 139.351 C 194.816 140.300,194.836 140.486,194.712 159.947 L 194.600 177.670 193.478 178.635 L 192.355 179.600 175.204 179.600 C 157.438 179.600,156.489 179.518,155.426 177.896 C 154.320 176.207,156.074 153.756,157.580 150.325 C 157.997 149.376,158.466 147.100,158.623 145.266 C 158.956 141.386,159.850 139.932,162.303 139.280 C 164.776 138.623,190.949 138.684,192.544 139.351 M238.141 139.575 C 240.644 140.648,241.058 141.511,241.551 146.699 C 241.786 149.174,242.243 151.710,242.566 152.335 C 243.896 154.906,245.587 175.477,244.642 177.588 C 243.750 179.583,243.482 179.609,224.665 179.501 L 207.130 179.400 206.165 178.278 L 205.200 177.155 205.200 159.604 C 205.200 141.080,205.261 140.426,207.082 139.438 C 208.990 138.404,235.682 138.521,238.141 139.575 M283.705 139.300 C 286.592 140.913,287.467 141.947,288.181 144.587 C 288.572 146.028,289.251 147.665,289.691 148.225 C 290.632 149.422,291.600 152.421,291.600 154.142 C 291.600 154.810,292.065 156.028,292.633 156.847 C 293.342 157.871,293.793 159.255,294.074 161.269 C 294.299 162.881,294.745 165.550,295.065 167.200 C 295.386 168.850,295.943 171.709,296.302 173.552 L 296.957 176.904 295.704 178.024 C 293.936 179.603,293.042 179.668,274.800 179.526 C 254.135 179.365,256.232 180.585,255.616 168.372 C 255.378 163.657,255.015 159.170,254.809 158.400 C 251.911 147.567,251.609 140.676,253.977 139.389 C 255.394 138.618,282.341 138.538,283.705 139.300 M142.270 191.443 C 143.858 192.628,144.333 194.654,144.373 200.400 C 144.420 207.085,145.109 214.607,145.832 216.339 C 146.636 218.263,147.596 224.424,147.598 227.671 C 147.601 232.176,148.262 232.000,131.372 232.000 C 114.025 232.000,113.765 231.925,111.952 226.436 C 111.474 224.986,110.676 223.312,110.180 222.716 C 109.595 222.012,109.107 220.609,108.791 218.716 C 108.522 217.112,107.997 215.350,107.624 214.800 C 106.588 213.272,106.376 212.522,105.761 208.200 C 105.448 206.000,104.803 203.120,104.328 201.800 C 103.707 200.078,103.454 198.417,103.431 195.921 C 103.380 190.224,102.728 190.393,124.271 190.509 C 140.730 190.598,141.170 190.621,142.270 191.443 M193.124 191.129 C 194.623 192.282,194.781 194.192,194.781 211.200 C 194.781 228.098,194.616 230.133,193.153 231.318 C 191.975 232.272,162.992 232.207,161.122 231.246 C 159.765 230.548,158.967 228.579,158.589 224.998 C 158.427 223.459,158.117 221.750,157.901 221.200 C 156.774 218.332,156.327 215.262,155.620 205.517 C 154.730 193.252,154.796 192.235,156.559 191.160 C 158.416 190.028,191.656 190.000,193.124 191.129 M243.213 191.071 C 245.052 192.157,245.156 193.470,244.390 205.800 C 243.916 213.420,243.508 216.245,242.635 217.933 C 242.307 218.566,241.841 221.028,241.600 223.403 C 240.703 232.215,241.689 231.770,222.761 231.918 L 207.686 232.036 206.543 231.053 L 205.400 230.070 205.279 212.735 C 205.138 192.613,205.165 192.253,206.928 191.179 C 208.758 190.063,241.343 189.966,243.213 191.071 M294.276 191.179 C 296.607 192.237,297.217 194.314,296.224 197.800 C 295.848 199.120,295.129 202.815,294.627 206.010 C 293.960 210.264,293.432 212.352,292.658 213.807 C 292.076 214.900,291.600 216.101,291.600 216.477 C 291.600 218.169,290.650 221.320,289.840 222.312 C 289.352 222.910,288.623 224.511,288.222 225.870 C 287.670 227.736,287.061 228.763,285.729 230.070 L 283.967 231.800 269.255 231.914 C 251.872 232.048,252.400 232.169,252.400 228.056 C 252.400 224.753,253.458 217.075,254.382 213.670 C 254.954 211.563,255.293 208.404,255.589 202.428 C 256.103 192.056,256.337 191.334,259.400 190.667 C 262.410 190.012,292.684 190.456,294.276 191.179 M150.960 242.741 C 152.965 243.628,153.410 244.274,154.041 247.215 C 154.285 248.357,154.921 249.932,155.453 250.716 C 155.985 251.500,156.518 252.605,156.638 253.171 C 157.023 254.993,158.056 257.599,158.615 258.158 C 158.914 258.457,159.542 259.848,160.011 261.251 C 160.480 262.653,161.266 264.250,161.759 264.800 C 162.251 265.350,162.979 266.554,163.377 267.476 C 163.775 268.398,164.340 269.245,164.632 269.357 C 165.378 269.643,166.800 272.560,166.800 273.803 C 166.800 276.103,161.812 276.213,159.379 273.967 C 158.928 273.550,157.711 272.954,156.675 272.643 C 155.640 272.331,154.158 271.519,153.382 270.838 C 152.607 270.157,151.644 269.600,151.244 269.600 C 150.843 269.600,149.724 269.005,148.758 268.278 C 147.791 267.551,146.320 266.640,145.488 266.253 C 144.657 265.867,143.757 265.192,143.488 264.753 C 143.220 264.314,142.398 263.666,141.663 263.314 C 140.927 262.962,140.137 262.261,139.907 261.757 C 139.678 261.252,138.989 260.665,138.378 260.452 C 137.102 260.007,126.800 249.846,126.800 249.032 C 126.800 248.736,126.438 248.399,125.995 248.283 C 124.060 247.777,123.646 243.533,125.405 242.245 C 126.595 241.375,148.846 241.806,150.960 242.741 M274.959 242.655 C 276.237 244.813,275.969 246.677,274.218 247.825 C 273.658 248.192,273.201 248.696,273.203 248.946 C 273.204 249.196,272.475 250.120,271.582 251.000 C 270.688 251.880,268.820 253.770,267.429 255.200 C 263.767 258.966,262.104 260.400,261.402 260.400 C 261.062 260.400,260.588 260.827,260.350 261.349 C 260.112 261.872,259.216 262.693,258.359 263.175 C 257.502 263.656,256.628 264.374,256.417 264.769 C 256.205 265.164,255.153 265.866,254.078 266.328 C 253.003 266.791,251.871 267.475,251.562 267.850 C 251.253 268.224,250.190 268.886,249.200 269.321 C 248.210 269.756,246.836 270.603,246.147 271.203 C 245.458 271.803,244.198 272.421,243.347 272.578 C 242.496 272.735,241.350 273.274,240.800 273.777 C 239.069 275.359,235.110 276.164,233.638 275.232 C 232.376 274.433,233.394 270.987,235.597 268.600 C 236.207 267.940,236.911 266.754,237.162 265.965 C 237.413 265.176,237.993 264.129,238.449 263.639 C 238.906 263.149,239.701 261.674,240.215 260.361 C 240.730 259.048,241.506 257.395,241.941 256.687 C 242.375 255.979,243.005 254.344,243.340 253.053 C 243.675 251.762,244.292 250.322,244.712 249.853 C 245.132 249.384,245.770 247.930,246.130 246.622 C 247.410 241.970,248.066 241.785,262.928 241.855 C 273.776 241.906,274.546 241.957,274.959 242.655 M193.478 242.965 L 194.600 243.930 194.723 259.865 C 194.791 268.629,194.732 276.760,194.591 277.933 C 194.171 281.420,192.336 282.545,190.238 280.600 C 189.644 280.050,189.030 279.600,188.873 279.600 C 188.164 279.600,185.391 277.826,183.997 276.481 C 183.154 275.666,182.165 274.730,181.801 274.400 C 180.343 273.079,177.200 269.532,177.200 269.207 C 177.200 269.017,176.688 268.349,176.061 267.723 C 175.435 267.097,174.706 265.928,174.441 265.125 C 174.176 264.322,173.535 263.388,173.017 263.048 C 172.483 262.698,171.789 261.573,171.417 260.452 C 171.056 259.364,170.329 258.008,169.801 257.439 C 169.274 256.870,168.524 255.368,168.136 254.102 C 167.747 252.836,167.031 251.170,166.544 250.400 C 164.614 247.345,164.510 243.477,166.330 242.415 C 166.727 242.184,172.170 242.019,179.678 242.012 L 192.355 242.000 193.478 242.965 M233.584 242.392 C 235.345 243.334,235.372 247.871,233.629 249.800 C 233.231 250.240,232.526 251.873,232.063 253.429 C 231.599 254.985,230.876 256.569,230.456 256.949 C 230.036 257.329,229.298 258.722,228.816 260.044 C 228.334 261.367,227.661 262.555,227.320 262.686 C 226.980 262.817,226.271 263.841,225.744 264.962 C 223.788 269.130,215.776 277.615,212.291 279.210 C 211.361 279.636,210.105 280.383,209.501 280.870 C 208.603 281.593,208.201 281.685,207.309 281.371 C 205.243 280.644,205.212 280.360,205.206 261.669 L 205.200 244.338 206.369 243.169 L 207.538 242.000 220.196 242.000 C 227.687 242.000,233.151 242.160,233.584 242.392 " stroke="none" fill="#fff" fill-rule="evenodd"></path></g></svg>